<?xml version="1.0" encoding="UTF-8" standalone="no"?>
<!DOCTYPE svg PUBLIC "-//W3C//DTD SVG 1.1//EN"
 "http://www.w3.org/Graphics/SVG/1.1/DTD/svg11.dtd">
<!-- Generated by graphviz version 2.26.0 (20091210.2329)
 -->
<!-- Title: snakemake_dag Pages: 1 -->
<svg width="632pt" height="488pt"
 viewBox="0.00 0.00 632.00 488.00" xmlns="http://www.w3.org/2000/svg" xmlns:xlink="http://www.w3.org/1999/xlink">
<g id="graph1" class="graph" transform="scale(1 1) rotate(0) translate(4 484)">
<title>snakemake_dag</title>
<polygon fill="white" stroke="white" points="-4,5 -4,-484 629,-484 629,5 -4,5"/>
<!-- 0 -->
<g id="node1" class="node"><title>0</title>
<polyline fill="none" stroke="#56a9d8" stroke-width="2" points="316,-396 276,-396 "/>
<path fill="none" stroke="#56a9d8" stroke-width="2" d="M276,-396C270,-396 264,-390 264,-384"/>
<polyline fill="none" stroke="#56a9d8" stroke-width="2" points="264,-384 264,-372 "/>
<path fill="none" stroke="#56a9d8" stroke-width="2" d="M264,-372C264,-366 270,-360 276,-360"/>
<polyline fill="none" stroke="#56a9d8" stroke-width="2" points="276,-360 316,-360 "/>
<path fill="none" stroke="#56a9d8" stroke-width="2" d="M316,-360C322,-360 328,-366 328,-372"/>
<polyline fill="none" stroke="#56a9d8" stroke-width="2" points="328,-372 328,-384 "/>
<path fill="none" stroke="#56a9d8" stroke-width="2" d="M328,-384C328,-390 322,-396 316,-396"/>
<text text-anchor="middle" x="296" y="-375.5" font-family="sans" font-size="10.00">sort_bam</text>
</g>
<!-- 1 -->
<g id="node2" class="node"><title>1</title>
<polyline fill="none" stroke="#80d856" stroke-width="2" points="92,-252 40,-252 "/>
<path fill="none" stroke="#80d856" stroke-width="2" d="M40,-252C34,-252 28,-246 28,-240"/>
<polyline fill="none" stroke="#80d856" stroke-width="2" points="28,-240 28,-228 "/>
<path fill="none" stroke="#80d856" stroke-width="2" d="M28,-228C28,-222 34,-216 40,-216"/>
<polyline fill="none" stroke="#80d856" stroke-width="2" points="40,-216 92,-216 "/>
<path fill="none" stroke="#80d856" stroke-width="2" d="M92,-216C98,-216 104,-222 104,-228"/>
<polyline fill="none" stroke="#80d856" stroke-width="2" points="104,-228 104,-240 "/>
<path fill="none" stroke="#80d856" stroke-width="2" d="M104,-240C104,-246 98,-252 92,-252"/>
<text text-anchor="middle" x="66" y="-231.5" font-family="sans" font-size="10.00">bam_strand</text>
</g>
<!-- 0&#45;&gt;1 -->
<g id="edge4" class="edge"><title>0&#45;&gt;1</title>
<path fill="none" stroke="grey" stroke-width="2" d="M263.769,-366.181C238.923,-356.444 204.166,-341.436 176,-324 145.356,-305.03 113.871,-278.409 92.481,-259.043"/>
<polygon fill="grey" stroke="grey" points="94.8163,-256.436 85.0774,-252.264 90.0891,-261.598 94.8163,-256.436"/>
</g>
<!-- 2 -->
<g id="node3" class="node"><title>2</title>
<polyline fill="none" stroke="#afd856" stroke-width="2" points="180,-252 134,-252 "/>
<path fill="none" stroke="#afd856" stroke-width="2" d="M134,-252C128,-252 122,-246 122,-240"/>
<polyline fill="none" stroke="#afd856" stroke-width="2" points="122,-240 122,-228 "/>
<path fill="none" stroke="#afd856" stroke-width="2" d="M122,-228C122,-222 128,-216 134,-216"/>
<polyline fill="none" stroke="#afd856" stroke-width="2" points="134,-216 180,-216 "/>
<path fill="none" stroke="#afd856" stroke-width="2" d="M180,-216C186,-216 192,-222 192,-228"/>
<polyline fill="none" stroke="#afd856" stroke-width="2" points="192,-228 192,-240 "/>
<path fill="none" stroke="#afd856" stroke-width="2" d="M192,-240C192,-246 186,-252 180,-252"/>
<text text-anchor="middle" x="157" y="-231.5" font-family="sans" font-size="10.00">bam_stats</text>
</g>
<!-- 0&#45;&gt;2 -->
<g id="edge8" class="edge"><title>0&#45;&gt;2</title>
<path fill="none" stroke="grey" stroke-width="2" d="M263.612,-364.855C244.15,-355.685 219.954,-341.887 203,-324 186.039,-306.105 173.839,-280.742 166.283,-261.499"/>
<polygon fill="grey" stroke="grey" points="169.537,-260.206 162.755,-252.066 162.98,-262.658 169.537,-260.206"/>
</g>
<!-- 3 -->
<g id="node4" class="node"><title>3</title>
<polyline fill="none" stroke="#5682d8" stroke-width="2" points="328,-252 260,-252 "/>
<path fill="none" stroke="#5682d8" stroke-width="2" d="M260,-252C254,-252 248,-246 248,-240"/>
<polyline fill="none" stroke="#5682d8" stroke-width="2" points="248,-240 248,-228 "/>
<path fill="none" stroke="#5682d8" stroke-width="2" d="M248,-228C248,-222 254,-216 260,-216"/>
<polyline fill="none" stroke="#5682d8" stroke-width="2" points="260,-216 328,-216 "/>
<path fill="none" stroke="#5682d8" stroke-width="2" d="M328,-216C334,-216 340,-222 340,-228"/>
<polyline fill="none" stroke="#5682d8" stroke-width="2" points="340,-228 340,-240 "/>
<path fill="none" stroke="#5682d8" stroke-width="2" d="M340,-240C340,-246 334,-252 328,-252"/>
<text text-anchor="middle" x="294" y="-231.5" font-family="sans" font-size="10.00">bam_inner_dist</text>
</g>
<!-- 0&#45;&gt;3 -->
<g id="edge12" class="edge"><title>0&#45;&gt;3</title>
<path fill="none" stroke="grey" stroke-width="2" d="M304.092,-359.917C308.256,-349.618 312.892,-336.344 315,-324 317.694,-308.228 317.95,-303.726 315,-288 313.365,-279.284 310.366,-270.168 307.136,-261.96"/>
<polygon fill="grey" stroke="grey" points="310.257,-260.352 303.158,-252.487 303.803,-263.062 310.257,-260.352"/>
</g>
<!-- 5 -->
<g id="node6" class="node"><title>5</title>
<polyline fill="none" stroke="#d6d856" stroke-width="2" points="408,-252 370,-252 "/>
<path fill="none" stroke="#d6d856" stroke-width="2" d="M370,-252C364,-252 358,-246 358,-240"/>
<polyline fill="none" stroke="#d6d856" stroke-width="2" points="358,-240 358,-228 "/>
<path fill="none" stroke="#d6d856" stroke-width="2" d="M358,-228C358,-222 364,-216 370,-216"/>
<polyline fill="none" stroke="#d6d856" stroke-width="2" points="370,-216 408,-216 "/>
<path fill="none" stroke="#d6d856" stroke-width="2" d="M408,-216C414,-216 420,-222 420,-228"/>
<polyline fill="none" stroke="#d6d856" stroke-width="2" points="420,-228 420,-240 "/>
<path fill="none" stroke="#d6d856" stroke-width="2" d="M420,-240C420,-246 414,-252 408,-252"/>
<text text-anchor="middle" x="389" y="-231.5" font-family="sans" font-size="10.00">bam_dist</text>
</g>
<!-- 0&#45;&gt;5 -->
<g id="edge18" class="edge"><title>0&#45;&gt;5</title>
<path fill="none" stroke="grey" stroke-width="2" d="M307.779,-359.762C323.921,-334.768 353.032,-289.692 371.665,-260.841"/>
<polygon fill="grey" stroke="grey" points="374.832,-262.389 377.317,-252.09 368.952,-258.591 374.832,-262.389"/>
</g>
<!-- 7 -->
<g id="node8" class="node"><title>7</title>
<polyline fill="none" stroke="#56d882" stroke-width="2" points="235,-36 205,-36 "/>
<path fill="none" stroke="#56d882" stroke-width="2" d="M205,-36C199,-36 193,-30 193,-24"/>
<polyline fill="none" stroke="#56d882" stroke-width="2" points="193,-24 193,-12 "/>
<path fill="none" stroke="#56d882" stroke-width="2" d="M193,-12C193,-6 199,-1.61846e-14 205,-1.46056e-14"/>
<polyline fill="none" stroke="#56d882" stroke-width="2" points="205,-1.46056e-14 235,-6.71068e-15 "/>
<path fill="none" stroke="#56d882" stroke-width="2" d="M235,-6.71068e-15C241,-5.1317e-15 247,-6 247,-12"/>
<polyline fill="none" stroke="#56d882" stroke-width="2" points="247,-12 247,-24 "/>
<path fill="none" stroke="#56d882" stroke-width="2" d="M247,-24C247,-30 241,-36 235,-36"/>
<text text-anchor="middle" x="220" y="-15.5" font-family="sans" font-size="10.00">all</text>
</g>
<!-- 0&#45;&gt;7 -->
<g id="edge22" class="edge"><title>0&#45;&gt;7</title>
<path fill="none" stroke="grey" stroke-width="2" d="M263.759,-369.652C187.043,-348.843 0,-292.147 0,-234 0,-234 0,-234 0,-162 0,-75.7331 119.887,-38.3593 182.66,-24.7032"/>
<polygon fill="grey" stroke="grey" points="183.504,-28.1024 192.582,-22.6386 182.078,-21.2492 183.504,-28.1024"/>
</g>
<!-- 9 -->
<g id="node10" class="node"><title>9</title>
<polyline fill="none" stroke="#d88556" stroke-width="2" points="488,-252 450,-252 "/>
<path fill="none" stroke="#d88556" stroke-width="2" d="M450,-252C444,-252 438,-246 438,-240"/>
<polyline fill="none" stroke="#d88556" stroke-width="2" points="438,-240 438,-228 "/>
<path fill="none" stroke="#d88556" stroke-width="2" d="M438,-228C438,-222 444,-216 450,-216"/>
<polyline fill="none" stroke="#d88556" stroke-width="2" points="450,-216 488,-216 "/>
<path fill="none" stroke="#d88556" stroke-width="2" d="M488,-216C494,-216 500,-222 500,-228"/>
<polyline fill="none" stroke="#d88556" stroke-width="2" points="500,-228 500,-240 "/>
<path fill="none" stroke="#d88556" stroke-width="2" d="M500,-240C500,-246 494,-252 488,-252"/>
<text text-anchor="middle" x="469" y="-231.5" font-family="sans" font-size="10.00">bam_cov</text>
</g>
<!-- 0&#45;&gt;9 -->
<g id="edge40" class="edge"><title>0&#45;&gt;9</title>
<path fill="none" stroke="grey" stroke-width="2" d="M317.911,-359.762C348.718,-334.119 404.921,-287.337 439.414,-258.626"/>
<polygon fill="grey" stroke="grey" points="441.821,-261.177 447.267,-252.09 437.342,-255.797 441.821,-261.177"/>
</g>
<!-- 10 -->
<g id="node11" class="node"><title>10</title>
<polyline fill="none" stroke="#56d8a9" stroke-width="2" points="294,-324 224,-324 "/>
<path fill="none" stroke="#56d8a9" stroke-width="2" d="M224,-324C218,-324 212,-318 212,-312"/>
<polyline fill="none" stroke="#56d8a9" stroke-width="2" points="212,-312 212,-300 "/>
<path fill="none" stroke="#56d8a9" stroke-width="2" d="M212,-300C212,-294 218,-288 224,-288"/>
<polyline fill="none" stroke="#56d8a9" stroke-width="2" points="224,-288 294,-288 "/>
<path fill="none" stroke="#56d8a9" stroke-width="2" d="M294,-288C300,-288 306,-294 306,-300"/>
<polyline fill="none" stroke="#56d8a9" stroke-width="2" points="306,-300 306,-312 "/>
<path fill="none" stroke="#56d8a9" stroke-width="2" d="M306,-312C306,-318 300,-324 294,-324"/>
<text text-anchor="middle" x="259" y="-303.5" font-family="sans" font-size="10.00">samtools_index</text>
</g>
<!-- 0&#45;&gt;10 -->
<g id="edge44" class="edge"><title>0&#45;&gt;10</title>
<path fill="none" stroke="grey" stroke-width="2" d="M286.663,-359.831C282.576,-351.877 277.69,-342.369 273.169,-333.572"/>
<polygon fill="grey" stroke="grey" points="276.146,-331.708 268.462,-324.413 269.92,-334.907 276.146,-331.708"/>
</g>
<!-- 11 -->
<g id="node12" class="node"><title>11</title>
<polyline fill="none" stroke="#56d8d8" stroke-width="2" points="612,-252 530,-252 "/>
<path fill="none" stroke="#56d8d8" stroke-width="2" d="M530,-252C524,-252 518,-246 518,-240"/>
<polyline fill="none" stroke="#56d8d8" stroke-width="2" points="518,-240 518,-228 "/>
<path fill="none" stroke="#56d8d8" stroke-width="2" d="M518,-228C518,-222 524,-216 530,-216"/>
<polyline fill="none" stroke="#56d8d8" stroke-width="2" points="530,-216 612,-216 "/>
<path fill="none" stroke="#56d8d8" stroke-width="2" d="M612,-216C618,-216 624,-222 624,-228"/>
<polyline fill="none" stroke="#56d8d8" stroke-width="2" points="624,-228 624,-240 "/>
<path fill="none" stroke="#56d8d8" stroke-width="2" d="M624,-240C624,-246 618,-252 612,-252"/>
<text text-anchor="middle" x="571" y="-231.5" font-family="sans" font-size="10.00">bam_junction_sat</text>
</g>
<!-- 0&#45;&gt;11 -->
<g id="edge46" class="edge"><title>0&#45;&gt;11</title>
<path fill="none" stroke="grey" stroke-width="2" d="M328.084,-361.2C377.474,-335.337 472.214,-285.728 527.657,-256.696"/>
<polygon fill="grey" stroke="grey" points="529.301,-259.786 536.536,-252.046 526.054,-253.585 529.301,-259.786"/>
</g>
<!-- 8 -->
<g id="node9" class="node"><title>8</title>
<polyline fill="none" stroke="#59d856" stroke-width="2" points="342,-180 278,-180 "/>
<path fill="none" stroke="#59d856" stroke-width="2" d="M278,-180C272,-180 266,-174 266,-168"/>
<polyline fill="none" stroke="#59d856" stroke-width="2" points="266,-168 266,-156 "/>
<path fill="none" stroke="#59d856" stroke-width="2" d="M266,-156C266,-150 272,-144 278,-144"/>
<polyline fill="none" stroke="#59d856" stroke-width="2" points="278,-144 342,-144 "/>
<path fill="none" stroke="#59d856" stroke-width="2" d="M342,-144C348,-144 354,-150 354,-156"/>
<polyline fill="none" stroke="#59d856" stroke-width="2" points="354,-156 354,-168 "/>
<path fill="none" stroke="#59d856" stroke-width="2" d="M354,-168C354,-174 348,-180 342,-180"/>
<text text-anchor="middle" x="310" y="-159.5" font-family="sans" font-size="10.00">summarise_qc</text>
</g>
<!-- 1&#45;&gt;8 -->
<g id="edge28" class="edge"><title>1&#45;&gt;8</title>
<path fill="none" stroke="grey" stroke-width="2" d="M104.107,-219.046C107.104,-217.981 110.094,-216.952 113,-216 160.843,-200.323 216.208,-185.427 256.038,-175.266"/>
<polygon fill="grey" stroke="grey" points="256.982,-178.638 265.816,-172.788 255.262,-171.852 256.982,-178.638"/>
</g>
<!-- 2&#45;&gt;8 -->
<g id="edge36" class="edge"><title>2&#45;&gt;8</title>
<path fill="none" stroke="grey" stroke-width="2" d="M192.101,-217.482C212.96,-207.666 239.694,-195.085 262.43,-184.386"/>
<polygon fill="grey" stroke="grey" points="264.017,-187.507 271.574,-180.083 261.036,-181.174 264.017,-187.507"/>
</g>
<!-- 3&#45;&gt;8 -->
<g id="edge32" class="edge"><title>3&#45;&gt;8</title>
<path fill="none" stroke="grey" stroke-width="2" d="M298.037,-215.831C299.749,-208.131 301.783,-198.974 303.685,-190.417"/>
<polygon fill="grey" stroke="grey" points="307.155,-190.934 305.908,-180.413 300.322,-189.416 307.155,-190.934"/>
</g>
<!-- 4 -->
<g id="node5" class="node"><title>4</title>
<polyline fill="none" stroke="#d85656" stroke-width="2" points="360,-108 260,-108 "/>
<path fill="none" stroke="#d85656" stroke-width="2" d="M260,-108C254,-108 248,-102 248,-96"/>
<polyline fill="none" stroke="#d85656" stroke-width="2" points="248,-96 248,-84 "/>
<path fill="none" stroke="#d85656" stroke-width="2" d="M248,-84C248,-78 254,-72 260,-72"/>
<polyline fill="none" stroke="#d85656" stroke-width="2" points="260,-72 360,-72 "/>
<path fill="none" stroke="#d85656" stroke-width="2" d="M360,-72C366,-72 372,-78 372,-84"/>
<polyline fill="none" stroke="#d85656" stroke-width="2" points="372,-84 372,-96 "/>
<path fill="none" stroke="#d85656" stroke-width="2" d="M372,-96C372,-102 366,-108 360,-108"/>
<text text-anchor="middle" x="310" y="-94" font-family="sans" font-size="10.00">qc_report</text>
<text text-anchor="middle" x="310" y="-81" font-family="sans" font-size="10.00">mapping_folder: Hisat</text>
</g>
<!-- 4&#45;&gt;7 -->
<g id="edge26" class="edge"><title>4&#45;&gt;7</title>
<path fill="none" stroke="grey" stroke-width="2" d="M287.289,-71.8314C276.204,-62.9632 262.705,-52.1637 250.715,-42.5718"/>
<polygon fill="grey" stroke="grey" points="252.699,-39.6768 242.704,-36.1628 248.326,-45.1429 252.699,-39.6768"/>
</g>
<!-- 5&#45;&gt;8 -->
<g id="edge34" class="edge"><title>5&#45;&gt;8</title>
<path fill="none" stroke="grey" stroke-width="2" d="M369.065,-215.831C359.522,-207.134 347.94,-196.578 337.569,-187.127"/>
<polygon fill="grey" stroke="grey" points="339.677,-184.312 329.929,-180.163 334.962,-189.486 339.677,-184.312"/>
</g>
<!-- 6 -->
<g id="node7" class="node"><title>6</title>
<polyline fill="none" stroke="#d8ac56" stroke-width="2" points="346,-479.5 246,-479.5 "/>
<path fill="none" stroke="#d8ac56" stroke-width="2" d="M246,-479.5C240,-479.5 234,-473.5 234,-467.5"/>
<polyline fill="none" stroke="#d8ac56" stroke-width="2" points="234,-467.5 234,-444.5 "/>
<path fill="none" stroke="#d8ac56" stroke-width="2" d="M234,-444.5C234,-438.5 240,-432.5 246,-432.5"/>
<polyline fill="none" stroke="#d8ac56" stroke-width="2" points="246,-432.5 346,-432.5 "/>
<path fill="none" stroke="#d8ac56" stroke-width="2" d="M346,-432.5C352,-432.5 358,-438.5 358,-444.5"/>
<polyline fill="none" stroke="#d8ac56" stroke-width="2" points="358,-444.5 358,-467.5 "/>
<path fill="none" stroke="#d8ac56" stroke-width="2" d="M358,-467.5C358,-473.5 352,-479.5 346,-479.5"/>
<text text-anchor="middle" x="296" y="-466.5" font-family="sans" font-size="10.00">hisat</text>
<text text-anchor="middle" x="296" y="-453.5" font-family="sans" font-size="10.00">mapping_folder: Hisat</text>
<text text-anchor="middle" x="296" y="-440.5" font-family="sans" font-size="10.00">sample: test</text>
</g>
<!-- 6&#45;&gt;0 -->
<g id="edge2" class="edge"><title>6&#45;&gt;0</title>
<path fill="none" stroke="grey" stroke-width="2" d="M296,-432.174C296,-424.109 296,-415.02 296,-406.622"/>
<polygon fill="grey" stroke="grey" points="299.5,-406.485 296,-396.485 292.5,-406.485 299.5,-406.485"/>
</g>
<!-- 8&#45;&gt;4 -->
<g id="edge16" class="edge"><title>8&#45;&gt;4</title>
<path fill="none" stroke="grey" stroke-width="2" d="M310,-143.831C310,-136.131 310,-126.974 310,-118.417"/>
<polygon fill="grey" stroke="grey" points="313.5,-118.413 310,-108.413 306.5,-118.413 313.5,-118.413"/>
</g>
<!-- 9&#45;&gt;8 -->
<g id="edge30" class="edge"><title>9&#45;&gt;8</title>
<path fill="none" stroke="grey" stroke-width="2" d="M437.966,-219.947C415.59,-209.814 384.93,-195.93 359.231,-184.293"/>
<polygon fill="grey" stroke="grey" points="360.565,-181.055 350.012,-180.119 357.677,-187.432 360.565,-181.055"/>
</g>
<!-- 10&#45;&gt;1 -->
<g id="edge6" class="edge"><title>10&#45;&gt;1</title>
<path fill="none" stroke="grey" stroke-width="2" d="M211.936,-288.749C185.539,-279.037 151.782,-266.559 113.918,-252.329"/>
<polygon fill="grey" stroke="grey" points="114.798,-248.92 104.206,-248.674 112.332,-255.472 114.798,-248.92"/>
</g>
<!-- 10&#45;&gt;2 -->
<g id="edge10" class="edge"><title>10&#45;&gt;2</title>
<path fill="none" stroke="grey" stroke-width="2" d="M233.261,-287.831C220.456,-278.793 204.809,-267.748 191.028,-258.02"/>
<polygon fill="grey" stroke="grey" points="192.919,-255.07 182.731,-252.163 188.882,-260.789 192.919,-255.07"/>
</g>
<!-- 10&#45;&gt;3 -->
<g id="edge14" class="edge"><title>10&#45;&gt;3</title>
<path fill="none" stroke="grey" stroke-width="2" d="M267.832,-287.831C271.699,-279.877 276.321,-270.369 280.597,-261.572"/>
<polygon fill="grey" stroke="grey" points="283.825,-262.937 285.049,-252.413 277.529,-259.877 283.825,-262.937"/>
</g>
<!-- 10&#45;&gt;5 -->
<g id="edge20" class="edge"><title>10&#45;&gt;5</title>
<path fill="none" stroke="grey" stroke-width="2" d="M291.804,-287.831C309.178,-278.209 330.657,-266.313 349.001,-256.153"/>
<polygon fill="grey" stroke="grey" points="350.944,-259.078 357.996,-251.171 347.552,-252.955 350.944,-259.078"/>
</g>
<!-- 10&#45;&gt;7 -->
<g id="edge24" class="edge"><title>10&#45;&gt;7</title>
<path fill="none" stroke="grey" stroke-width="2" d="M250.872,-287.882C246.61,-277.572 241.723,-264.299 239,-252 222.845,-179.024 220.085,-90.5259 219.819,-46.1896"/>
<polygon fill="grey" stroke="grey" points="223.319,-46.1495 219.798,-36.1568 216.319,-46.1642 223.319,-46.1495"/>
</g>
<!-- 10&#45;&gt;9 -->
<g id="edge42" class="edge"><title>10&#45;&gt;9</title>
<path fill="none" stroke="grey" stroke-width="2" d="M306.04,-292.648C338.233,-283.151 381.988,-269.544 428.133,-252.145"/>
<polygon fill="grey" stroke="grey" points="429.605,-255.33 437.701,-248.496 427.11,-248.789 429.605,-255.33"/>
</g>
<!-- 10&#45;&gt;11 -->
<g id="edge48" class="edge"><title>10&#45;&gt;11</title>
<path fill="none" stroke="grey" stroke-width="2" d="M306.227,-296.822C354.596,-287.194 432.143,-271.127 508.216,-252.116"/>
<polygon fill="grey" stroke="grey" points="509.124,-255.497 517.967,-249.661 507.415,-248.709 509.124,-255.497"/>
</g>
<!-- 11&#45;&gt;8 -->
<g id="edge38" class="edge"><title>11&#45;&gt;8</title>
<path fill="none" stroke="grey" stroke-width="2" d="M517.918,-218.523C514.902,-217.664 511.914,-216.818 509,-216 460.071,-202.26 404.209,-187.152 364.152,-176.419"/>
<polygon fill="grey" stroke="grey" points="364.888,-172.993 354.323,-173.788 363.078,-179.755 364.888,-172.993"/>
</g>
</g>
</svg>
